<svg xmlns="http://www.w3.org/2000/svg" viewBox="0 0 400 400" fill="none">
  <defs>
    <linearGradient id="bg" x1="0" y1="0" x2="400" y2="400">
      <stop offset="0" stop-color="#d4a520" stop-opacity="0.15"/>
      <stop offset="1" stop-color="#d4a520" stop-opacity="0.05"/>
    </linearGradient>
    <linearGradient id="shoe" x1="80" y1="150" x2="320" y2="280">
      <stop offset="0" stop-color="#1c1917"/>
      <stop offset="1" stop-color="#44403c"/>
    </linearGradient>
  </defs>
  <rect width="400" height="400" fill="url(#bg)"/>
  <g transform="translate(40, 40) scale(0.8)">
    <path d="M60 280 Q60 310 90 315 L310 315 Q340 310 340 280 L330 270 Q325 265 310 267 L90 267 Q75 265 70 270 Z" fill="#d4a520"/>
    <path d="M70 270 Q75 255 80 240 Q85 220 100 210 L180 175 Q210 168 240 172 Q270 176 290 195 Q310 215 315 240 Q320 260 318 270 Z" fill="url(#shoe)"/>
    <path d="M100 210 Q120 195 155 192 Q190 188 220 192 Q250 196 270 210" fill="none" stroke="#d4a520" stroke-width="3" stroke-linecap="round"/>
    <path d="M105 255 Q140 235 200 232 Q260 229 305 245" fill="none" stroke="#d4a520" stroke-width="3" stroke-linecap="round"/>
    <text x="200" y="370" text-anchor="middle" fill="#1c1917" font-family="sans-serif" font-size="28" font-weight="bold" opacity="0.6">RUNNING</text>
  </g>
</svg>
